PathFileType	4	(X/Y/Z)	c:/Users/goper/Files/vsCode/490R/osim_files/C15/C15_Slow_02.trc
DataRate	CameraRate	NumFrames	NumMarkers	Units                	OrigDataRate	OrigDataStartFrame	OrigNumFrames
250.00	250.00	6	36	mm	250.0	1936	3097
                Frame#	Time	LPSIS			LASIS			LTH1			LTH2			LTH3			LTH4			LLFE			LMFE			LSH1			LSH2			LSH3			LSH4			LLMAL			LMMAL			LCAL			LMTP5			LTOE			LMTP1			RPSIS			RASIS			RTH1			RTH2			RTH3			RTH4			RLFE			RMFE			RSH1			RSH2			RSH3			RSH4			RLMAL			RMMAL			RCAL			RMTP1			RTOE			RMTP5		
		X1	Y1	Z1	X2	Y2	Z2	X3	Y3	Z3	X4	Y4	Z4	X5	Y5	Z5	X6	Y6	Z6	X7	Y7	Z7	X8	Y8	Z8	X9	Y9	Z9	X10	Y10	Z10	X11	Y11	Z11	X12	Y12	Z12	X13	Y13	Z13	X14	Y14	Z14	X15	Y15	Z15	X16	Y16	Z16	X17	Y17	Z17	X18	Y18	Z18	X19	Y19	Z19	X20	Y20	Z20	X21	Y21	Z21	X22	Y22	Z22	X23	Y23	Z23	X24	Y24	Z24	X25	Y25	Z25	X26	Y26	Z26	X27	Y27	Z27	X28	Y28	Z28	X29	Y29	Z29	X30	Y30	Z30	X31	Y31	Z31	X32	Y32	Z32	X33	Y33	Z33	X34	Y34	Z34	X35	Y35	Z35	X36	Y36	Z36

1936	7.74000	-1007.48065	1020.74255	215.27345	-1166.44873	1003.17212	295.77484	-1174.15283	619.82086	379.67767	-1187.66748	575.06671	369.79031	-1222.48730	639.28589	380.87076	-1235.27722	595.60828	376.67349	-1216.14368	510.46561	354.65613	-1242.52319	486.11838	236.10497	-1117.71423	468.35284	354.07086	-1087.13196	435.18060	355.61948	-1159.35254	423.51440	366.08698	-1123.26929	395.80573	367.15030	-934.01617	219.80363	295.37421	-985.62476	215.31711	216.65741	-884.19269	237.12247	237.36707	-984.75391	101.91795	334.26233	-1056.34570	82.40140	289.78171	-1018.06195	81.52293	224.86119	-1022.70288	1024.01794	94.51053	-1185.21155	1004.83508	46.72697	-1157.56628	628.69739	7.72094	-1162.78442	583.18848	20.44569	-1216.23840	633.84088	25.13412	-1212.85718	586.13300	32.57908	-1171.43958	491.62692	53.40192	-1143.80615	479.99542	167.50015	-1086.91211	386.05930	31.16385	-1086.29773	342.09155	31.18116	-1149.17920	376.29312	39.70663	-1137.82324	335.06070	36.36018	-1083.27808	84.28458	110.42550	-1107.94458	110.50541	198.98224	-1020.40833	61.43153	155.41211	-1220.39795	41.19529	210.39088	-1258.15149	62.72120	158.94304	-1202.36658	35.52571	88.88972
1937	7.74400	-1010.65625	1021.00061	215.33188	-1169.85730	1003.64606	295.46283	-1179.28149	620.61700	379.70541	-1192.98376	575.93707	369.86050	-1227.48340	640.34192	380.75131	-1240.43726	596.66510	376.54337	-1221.58557	511.55054	354.31332	-1247.28796	487.09808	236.38065	-1123.29639	468.23697	353.70941	-1093.22974	434.50366	355.53528	-1165.48474	423.50903	365.29083	-1130.03271	395.63431	367.13739	-943.24231	216.53543	296.18552	-995.83234	212.89175	216.60252	-893.21167	232.30095	238.02910	-996.85663	99.70839	335.19760	-1069.26416	81.58581	290.38678	-1030.28735	79.55670	225.83098	-1025.63745	1024.14758	94.60583	-1187.93311	1004.81189	46.37531	-1158.85046	628.67511	7.62101	-1163.86096	583.24103	20.28362	-1217.49658	633.57727	24.95048	-1214.12280	585.92798	32.48579	-1172.20654	491.54117	53.22027	-1145.30176	479.77591	167.16408	-1087.34778	386.14697	31.21092	-1086.62891	342.20682	31.25032	-1149.67505	376.23511	39.55472	-1138.15332	335.07587	36.24187	-1083.31409	84.33923	110.48846	-1108.10754	110.59421	199.01688	-1020.42688	61.44404	155.47443	-1220.57300	41.29533	210.49184	-1258.21008	62.70186	158.93489	-1202.23242	35.55667	88.96632
1938	7.74800	-1013.70215	1021.29358	215.36983	-1173.10986	1003.98468	295.16580	-1184.30371	621.42786	379.74576	-1198.15503	576.94794	369.70038	-1232.41211	641.36255	380.70050	-1245.59045	597.81641	376.41190	-1227.00439	512.46863	353.87225	-1252.76013	487.58319	232.66408	-1128.72607	468.04855	353.26263	-1099.34863	433.71866	355.40021	-1171.86316	424.19711	365.73184	-1136.72083	395.41580	367.01123	-953.20203	212.70084	296.51822	-1004.93671	209.94481	217.39258	-902.36682	227.38658	238.61073	-1009.03918	97.49186	336.16498	-1081.38159	80.77889	291.29767	-1042.79077	77.64412	226.74269	-1028.45642	1024.30798	94.64951	-1190.68323	1004.82507	46.01769	-1160.20227	628.65399	7.50175	-1165.10547	583.15967	20.11251	-1218.87292	633.42542	24.85154	-1215.12488	585.69281	32.28054	-1172.98120	491.45496	52.99334	-1146.21643	479.78314	167.03101	-1087.80493	386.24872	31.25107	-1086.85608	342.31339	31.28797	-1150.12366	376.22070	39.42111	-1138.43665	335.10312	36.14589	-1083.56409	84.27936	110.74693	-1108.24731	110.67023	199.03296	-1020.42780	61.50441	155.52435	-1220.62891	41.20469	210.60110	-1258.25269	62.65168	158.89835	-1202.25562	35.54424	88.97413
1939	7.75200	-1016.75519	1021.53723	215.48199	-1176.54675	1004.44318	294.89865	-1189.27234	622.18158	379.70258	-1203.29297	577.83673	369.62579	-1237.26514	642.35455	380.52649	-1250.61682	598.86279	376.19055	-1232.32886	513.36395	353.47580	-1258.04004	488.66705	232.32114	-1135.23889	466.40155	352.99805	-1105.39880	432.78986	355.20090	-1178.12781	424.45883	365.57477	-1143.41760	395.18964	366.91992	-962.70581	209.20412	297.36447	-1014.79211	207.08879	217.93324	-911.49011	222.43643	239.30693	-1021.31659	95.20081	337.03198	-1093.87683	79.91254	292.18585	-1055.20447	75.72544	227.71568	-1031.19080	1024.53027	94.70247	-1193.19849	1004.89923	45.68101	-1161.39392	628.69250	7.39732	-1166.16748	583.19818	20.05319	-1220.24609	633.20941	24.69738	-1217.01428	585.72430	31.44074	-1173.76099	491.41672	52.77983	-1147.03735	479.83438	166.92744	-1088.17444	386.40311	31.31686	-1087.09460	342.44006	31.31546	-1150.50317	376.21823	39.31145	-1138.70862	335.08884	36.04296	-1083.59595	84.34721	110.80641	-1108.36877	110.70581	199.06119	-1020.42310	61.57809	155.55309	-1220.63257	41.38250	210.77219	-1258.24768	62.61242	158.87721	-1202.24768	35.54824	88.94892
1940	7.75600	-1019.95660	1021.71503	215.59830	-1179.72827	1004.75287	294.63141	-1194.23938	622.88007	379.74377	-1208.40979	578.55457	369.66693	-1242.13220	643.29218	380.43497	-1255.63989	599.92145	376.04626	-1237.63416	514.21301	353.03394	-1263.37158	489.72418	231.94644	-1140.60583	465.77945	352.58347	-1111.46362	431.78021	354.96948	-1184.13574	424.58197	365.39746	-1150.04517	394.80890	366.80627	-972.50934	205.50903	297.92657	-1024.43579	204.16292	218.43942	-920.77325	217.34099	240.09639	-1033.66846	92.87174	338.01450	-1106.45056	79.08069	293.09555	-1067.77527	74.09006	228.47823	-1034.05652	1024.55859	94.77832	-1195.83484	1004.92310	45.30529	-1162.82153	628.70837	7.27383	-1167.38745	583.15826	19.95175	-1221.56628	633.04932	24.62347	-1218.13696	585.51495	31.35623	-1174.44727	491.34772	52.61256	-1148.00500	479.79398	166.87851	-1088.55066	386.50296	31.36894	-1086.34460	343.60101	31.82866	-1150.58179	376.59528	39.09644	-1138.99292	335.09650	35.98868	-1083.60974	84.37024	110.89325	-1108.66504	110.73497	199.23375	-1020.48248	61.60582	155.59589	-1220.54590	41.11139	210.57072	-1258.32214	62.53567	158.88757	-1202.27222	35.56127	88.94752
1941	7.76000	-1022.97974	1021.92352	215.65245	-1182.96765	1005.08087	294.35022	-1199.13538	623.57605	379.71713	-1213.48108	579.17987	369.73746	-1246.92517	644.22559	380.31250	-1260.60852	600.93933	375.90384	-1242.88647	514.98053	353.03384	-1268.58447	490.73767	231.53752	-1146.50488	465.02420	352.65390	-1117.48413	430.60202	354.71317	-1190.34033	424.70291	365.17661	-1156.70020	394.38632	366.76694	-982.81421	201.38239	298.33691	-1034.41187	201.13979	219.02890	-930.82318	211.78636	240.22125	-1046.06396	90.56852	338.94540	-1119.01892	78.20364	294.03363	-1081.06836	72.28514	229.36046	-1036.96851	1024.59668	94.90768	-1198.82812	1004.82324	45.11745	-1163.98572	628.73920	7.19206	-1168.42004	583.17834	19.81484	-1222.89331	632.80457	24.44868	-1219.27515	585.29358	31.18098	-1175.23462	491.28198	52.42827	-1148.98303	479.76794	166.75844	-1088.93677	386.61880	31.41710	-1086.10144	344.28726	32.08963	-1150.87256	376.55371	39.02334	-1139.26782	335.10446	35.93678	-1083.66663	84.43625	110.95254	-1108.78674	110.84095	199.24091	-1020.44879	61.73871	155.56949	-1220.52454	41.06607	210.59453	-1258.32104	62.46055	158.88043	-1202.25317	35.56437	88.93226
